<svg xmlns="http://www.w3.org/2000/svg" width="35.37" height="34.127" viewBox="0 0 35.37 34.127"><g transform="translate(0 -0.029)"><path d="M231.169,429.461a.993.993,0,0,0-.871-.156l-9.814,2.945a.99.99,0,0,0-.7.946v7.027a3.455,3.455,0,0,0-.977-.14,2.5,2.5,0,1,0,2.94,2.46v-6.394l7.851-2.361v4.476a3.457,3.457,0,0,0-.977-.14,2.5,2.5,0,1,0,2.94,2.46V430.26A.986.986,0,0,0,231.169,429.461Z" transform="translate(-196.194 -424.843)" fill="#024959"/><path d="M8.66-.02A8.672,8.672,0,1,1-.02,8.66,8.652,8.652,0,0,1,8.66-.02Z" transform="translate(0.757 12.293) rotate(-45)" fill="#024959"/><path d="M13.493,589.72h-1A12.5,12.5,0,0,0,0,602.237H25.986a12.5,12.5,0,0,0-12.492-12.516Z" transform="translate(0 -568.081)" fill="#024959"/></g></svg>